<?xml version="1.0" encoding="UTF-8" ?>
<!DOCTYPE svg PUBLIC "-//W3C//DTD SVG 1.1//EN" "http://www.w3.org/Graphics/SVG/1.1/DTD/svg11.dtd">
<svg width="512pt" height="512pt" viewBox="0 0 512 512" version="1.1" xmlns="http://www.w3.org/2000/svg">
<g id="#000000ff">
<path fill="#000000" opacity="1.00" d=" M 254.29 0.00 L 258.41 0.00 C 291.17 0.86 323.86 9.82 351.75 27.18 C 397.46 54.73 430.06 103.08 437.94 155.92 C 439.69 165.52 440.03 175.28 440.30 185.01 C 440.24 205.90 433.30 225.89 426.20 245.27 C 412.13 280.44 393.62 313.62 373.88 345.88 C 354.27 377.53 333.36 408.37 311.35 438.40 C 293.50 463.46 274.62 487.78 255.67 512.00 L 255.35 512.00 C 246.55 500.10 237.00 488.76 228.25 476.81 C 212.74 456.81 198.18 436.11 183.39 415.58 C 165.83 390.59 148.98 365.09 133.09 339.00 C 114.36 307.73 96.64 275.65 83.61 241.54 C 77.72 225.21 72.19 208.49 71.07 191.04 C 70.55 178.17 71.55 165.24 73.75 152.56 C 82.70 100.12 115.84 52.50 161.79 25.75 C 189.60 9.05 221.94 0.55 254.29 0.00 M 245.06 61.12 C 207.07 90.41 169.02 119.64 130.99 148.88 C 128.76 150.65 126.58 152.95 126.37 155.94 C 125.57 161.04 129.86 166.18 135.04 166.20 C 144.41 166.50 153.79 166.22 163.16 166.30 C 163.22 199.52 163.18 232.74 163.18 265.95 C 163.11 269.32 163.92 273.08 166.82 275.15 C 169.09 277.07 172.20 277.11 175.01 277.20 C 226.67 277.17 278.32 277.18 329.98 277.20 C 334.16 277.10 338.50 277.66 342.54 276.29 C 346.50 274.61 348.23 270.15 348.00 266.08 C 348.02 232.81 347.97 199.55 348.02 166.29 C 357.31 166.24 366.61 166.47 375.90 166.22 C 381.20 166.32 385.59 161.04 384.76 155.86 C 384.51 152.88 382.33 150.59 380.12 148.83 C 342.26 119.71 304.38 90.60 266.55 61.45 C 263.28 59.07 260.18 55.77 255.89 55.53 C 251.54 55.40 248.31 58.73 245.06 61.12 Z" />
<path fill="#000000" opacity="1.00" d=" M 162.67 147.85 C 193.62 123.96 224.63 100.16 255.62 76.34 C 286.54 100.22 317.57 123.94 348.47 147.85 C 343.33 148.18 337.31 146.63 332.93 150.05 C 329.91 152.35 329.41 156.39 329.48 159.93 C 329.54 192.85 329.47 225.77 329.52 258.69 C 317.20 258.75 304.87 258.73 292.55 258.69 C 292.57 237.80 292.55 216.90 292.57 196.00 C 292.61 192.69 291.84 189.01 289.03 186.93 C 286.56 184.80 283.11 184.86 280.04 184.78 C 263.36 184.85 246.69 184.80 230.01 184.80 C 226.81 184.80 223.28 185.30 221.10 187.90 C 218.74 190.28 218.65 193.82 218.60 196.96 C 218.66 217.55 218.61 238.14 218.63 258.72 C 206.30 258.71 193.97 258.76 181.64 258.69 C 181.64 225.12 181.70 191.54 181.62 157.96 C 181.80 153.76 179.21 149.42 175.01 148.34 C 170.95 147.51 166.78 147.89 162.67 147.85 Z" />
<path fill="#000000" opacity="1.00" d=" M 237.10 203.27 C 249.42 203.28 261.74 203.28 274.06 203.28 C 274.06 221.76 274.07 240.24 274.05 258.72 C 261.73 258.72 249.42 258.71 237.10 258.73 C 237.08 240.24 237.09 221.76 237.10 203.27 Z" />
</g>
</svg>
