<?xml version="1.0" encoding="UTF-8" ?>
<!DOCTYPE svg PUBLIC "-//W3C//DTD SVG 1.1//EN" "http://www.w3.org/Graphics/SVG/1.1/DTD/svg11.dtd">
<svg width="585pt" height="460pt" viewBox="0 0 585 460" version="1.1" xmlns="http://www.w3.org/2000/svg">
<g id="#002d3fff">
<path fill="#002d3f" opacity="1.00" d=" M 30.04 6.16 C 39.58 1.31 50.50 0.71 61.00 0.98 C 218.01 1.04 375.03 0.98 532.05 1.01 C 549.37 0.69 566.38 9.62 576.05 23.98 C 580.60 30.42 583.15 38.00 585.00 45.59 L 585.00 63.30 C 584.19 66.69 583.30 70.05 582.41 73.42 C 578.49 88.60 570.30 102.38 560.37 114.39 C 551.02 125.71 539.89 135.48 527.78 143.75 C 475.20 180.14 422.48 216.33 370.26 253.25 C 353.86 265.10 337.62 277.49 319.24 286.17 C 310.70 290.07 301.50 293.32 291.98 292.93 C 280.96 292.51 270.63 288.03 261.02 282.97 C 243.19 273.42 227.23 260.90 210.79 249.23 C 159.85 213.41 108.55 178.11 57.46 142.52 C 46.96 135.26 37.54 126.51 29.11 116.95 C 18.89 105.23 9.81 92.17 4.60 77.40 C 0.03 64.63 1.01 50.50 4.73 37.65 C 8.68 24.44 17.38 12.20 30.04 6.16 Z" />
<path fill="#002d3f" opacity="1.00" d=" M 1.48 148.86 C 7.20 154.36 12.66 160.16 18.82 165.19 C 28.44 173.44 39.25 180.10 49.63 187.33 C 102.70 223.38 155.82 259.41 207.45 297.52 C 229.59 313.32 253.32 328.91 280.68 333.39 C 302.36 337.02 324.29 330.46 343.32 320.32 C 365.77 308.65 385.42 292.55 406.03 278.06 C 453.81 243.93 502.37 210.92 551.01 178.04 C 563.44 169.60 574.93 159.76 585.00 148.61 L 585.00 414.39 C 582.36 429.43 573.84 443.67 560.61 451.65 C 554.48 455.83 547.23 457.57 540.23 459.64 C 532.86 458.59 525.41 459.07 518.00 459.00 C 367.00 458.99 216.00 459.00 65.00 459.00 C 59.23 458.91 53.45 458.83 47.74 459.70 C 39.33 457.81 30.85 455.38 23.82 450.18 C 9.90 440.53 1.31 423.95 1.42 407.01 C 1.45 320.96 1.34 234.91 1.48 148.86 Z" />
</g>
<g id="#00172080">
<path fill="#001720" opacity="0.50" d=" M 47.74 459.70 C 53.45 458.83 59.23 458.91 65.00 459.00 C 216.00 459.00 367.00 458.99 518.00 459.00 C 525.41 459.07 532.86 458.59 540.23 459.64 L 539.02 460.00 L 48.97 460.00 L 47.74 459.70 Z" />
</g>
</svg>
