<?xml version="1.0" encoding="UTF-8" ?>
<!DOCTYPE svg PUBLIC "-//W3C//DTD SVG 1.1//EN" "http://www.w3.org/Graphics/SVG/1.1/DTD/svg11.dtd">
<svg width="225pt" height="225pt" viewBox="0 0 225 225" version="1.1" xmlns="http://www.w3.org/2000/svg">
<g id="#f5f5f5ff">
</g>
<g id="#000000ff">
<path fill="#000000" opacity="1.00" d=" M 76.45 9.46 C 78.37 8.83 80.30 10.08 81.82 11.16 C 85.36 14.33 86.80 19.27 86.70 23.91 C 86.73 82.61 86.70 141.31 86.71 200.01 C 86.86 204.97 85.68 210.44 81.75 213.81 C 80.12 215.06 77.79 216.44 75.77 215.25 C 58.63 207.41 41.46 199.65 24.32 191.80 C 19.17 189.55 14.22 186.81 8.75 185.43 C 3.89 182.52 2.07 176.41 2.15 171.03 C 2.15 132.01 2.16 92.99 2.15 53.96 C 2.05 49.23 3.37 44.16 6.97 40.88 C 8.60 39.12 11.16 39.08 13.25 38.19 C 34.34 28.66 55.38 19.02 76.45 9.46 M 57.30 95.54 C 53.18 96.83 49.67 100.16 48.47 104.36 C 46.86 110.38 50.32 116.88 56.07 119.12 C 63.52 122.26 72.90 116.16 72.74 108.03 C 73.48 100.07 64.93 93.36 57.30 95.54 Z" />
<path fill="#000000" opacity="1.00" d=" M 104.71 27.43 C 119.47 27.22 134.23 27.41 149.00 27.34 C 157.25 26.98 163.55 35.23 163.67 42.98 C 163.77 53.24 163.67 63.50 163.72 73.76 C 158.98 73.68 154.25 73.70 149.52 73.74 C 149.62 63.68 149.55 53.61 149.54 43.54 C 134.62 43.52 119.71 43.56 104.79 43.54 C 104.70 38.17 104.81 32.80 104.71 27.43 Z" />
<path fill="#000000" opacity="1.00" d=" M 174.53 60.95 C 190.70 76.68 206.57 92.74 222.81 108.41 C 206.78 124.38 190.53 140.14 174.54 156.15 C 174.52 149.16 174.56 142.17 174.49 135.18 C 155.95 135.11 137.40 135.12 118.85 135.18 C 118.92 118.03 118.86 100.87 118.88 83.71 C 137.43 83.74 155.99 83.76 174.54 83.71 C 174.44 76.12 174.58 68.53 174.53 60.95 Z" />
<path fill="#000000" opacity="1.00" d=" M 149.56 181.47 C 149.62 168.51 149.56 155.55 149.59 142.59 C 154.31 142.60 159.03 142.58 163.74 142.54 C 163.68 155.69 163.78 168.85 163.70 182.00 C 163.48 189.42 157.82 197.36 149.94 197.61 C 134.88 197.75 119.82 197.56 104.76 197.69 C 104.79 192.28 104.85 186.86 104.71 181.45 C 119.66 181.50 134.61 181.43 149.56 181.47 Z" />
</g>
</svg>
