<?xml version="1.0" encoding="UTF-8" ?>
<!DOCTYPE svg PUBLIC "-//W3C//DTD SVG 1.1//EN" "http://www.w3.org/Graphics/SVG/1.1/DTD/svg11.dtd">
<svg width="626pt" height="626pt" viewBox="0 0 626 626" version="1.1" xmlns="http://www.w3.org/2000/svg">
<g id="#ffffffff">
</g>
<g id="#000000ff">
<path fill="#000000" opacity="1.00" d=" M 171.18 0.00 L 540.90 0.00 L 536.48 0.77 C 541.74 0.03 545.74 3.81 548.42 7.76 C 550.50 12.55 549.97 17.95 550.05 23.05 C 550.04 184.36 550.04 345.67 550.04 506.98 C 549.88 510.84 549.83 515.11 547.17 518.21 C 543.61 523.69 536.03 524.85 530.17 522.98 C 526.13 521.68 523.81 517.93 521.75 514.49 C 476.80 546.95 432.02 579.63 387.12 612.16 C 381.04 616.86 374.40 620.86 368.68 626.00 L 368.33 626.00 C 367.83 597.67 368.25 569.33 368.11 541.00 C 368.11 413.66 368.12 286.32 368.11 158.98 C 368.17 156.13 367.83 153.24 368.40 150.43 C 419.01 113.79 469.51 76.94 520.14 40.33 C 521.79 38.35 520.97 35.44 521.21 33.05 C 521.07 31.51 521.73 28.37 519.13 28.86 C 408.23 28.79 297.33 28.91 186.44 28.80 C 186.10 33.18 186.25 37.57 186.23 41.95 C 186.22 84.41 186.24 126.88 186.22 169.35 C 181.41 173.28 176.78 177.65 173.81 183.18 C 169.27 190.17 167.81 198.73 168.15 206.95 C 167.88 216.05 171.46 224.81 176.79 232.05 C 170.28 232.14 163.77 232.09 157.26 232.07 C 157.24 160.38 157.27 88.69 157.25 17.00 C 157.20 13.18 157.67 9.13 159.97 5.95 C 162.74 2.58 166.77 0.23 171.18 0.00 M 417.85 352.85 C 416.64 354.47 415.95 356.44 414.50 357.90 C 414.50 358.18 414.49 358.73 414.48 359.01 C 412.98 361.24 412.86 364.08 412.12 366.61 C 406.58 366.70 401.04 366.60 395.50 366.67 C 395.39 370.93 395.46 375.18 395.45 379.44 C 400.86 379.42 406.27 379.52 411.67 379.38 C 412.94 386.34 415.35 393.47 421.05 398.06 C 421.96 398.47 422.85 398.91 423.75 399.36 C 427.17 399.96 430.69 398.74 432.97 396.11 C 438.60 390.20 439.71 381.75 440.32 373.97 C 439.70 367.54 439.08 360.96 435.85 355.21 C 434.11 352.56 431.81 350.37 429.14 348.69 C 427.04 348.32 424.92 348.31 422.82 348.57 C 421.13 349.96 419.35 351.25 417.85 352.85 Z" />
<path fill="#000000" opacity="1.00" d=" M 190.70 194.87 C 193.92 189.57 200.71 186.17 206.85 187.97 C 209.43 188.94 211.82 190.38 214.01 192.03 C 237.13 215.24 260.36 238.35 283.48 261.57 C 286.82 264.74 289.03 269.34 288.71 274.01 C 288.61 278.81 285.67 283.11 282.11 286.12 C 262.74 305.74 243.04 325.05 223.73 344.74 C 220.15 348.17 216.53 351.59 213.17 355.24 C 207.34 359.95 198.78 359.54 192.97 355.02 C 192.00 353.27 190.85 351.63 189.83 349.92 C 188.78 346.34 189.18 342.52 189.55 338.86 C 191.01 336.56 192.33 334.16 194.25 332.21 C 194.50 331.98 195.01 331.51 195.26 331.28 C 196.80 329.80 198.26 328.25 199.79 326.76 C 200.02 326.50 200.49 325.99 200.73 325.73 C 202.14 324.47 203.45 323.11 204.77 321.75 C 204.99 321.42 205.44 320.75 205.66 320.41 L 206.25 320.54 C 207.38 319.21 208.55 317.92 209.69 316.60 C 209.93 316.56 210.40 316.48 210.64 316.44 L 210.47 315.69 C 210.80 315.45 211.46 314.99 211.78 314.75 C 213.20 313.43 214.61 312.09 215.77 310.53 L 216.55 310.53 L 216.56 309.78 C 218.42 308.23 220.11 306.51 221.74 304.73 C 221.99 304.49 222.49 304.00 222.75 303.76 C 224.14 302.48 225.45 301.11 226.79 299.79 C 227.02 299.46 227.48 298.82 227.71 298.49 L 228.23 298.47 C 229.48 296.98 230.90 295.64 232.29 294.27 C 232.62 294.05 233.29 293.63 233.62 293.41 L 233.47 292.77 C 234.83 291.68 236.13 290.50 237.40 289.30 C 237.41 288.88 237.45 288.04 237.47 287.62 C 189.67 287.84 141.88 287.64 94.08 287.72 C 88.95 288.02 83.50 287.06 79.77 283.23 C 74.36 277.18 74.95 266.49 81.72 261.67 C 84.89 259.13 89.04 258.26 93.02 258.32 C 141.46 258.37 189.89 258.29 238.32 258.36 C 223.28 243.13 208.04 228.09 192.96 212.89 C 191.44 210.39 189.15 208.03 189.26 204.91 C 189.13 201.54 188.77 197.83 190.70 194.87 Z" />
<path fill="#000000" opacity="1.00" d=" M 157.27 320.28 C 163.77 320.36 170.27 320.15 176.76 320.40 C 175.66 322.30 174.50 324.19 173.28 326.02 C 171.04 329.34 170.19 333.33 168.94 337.07 C 168.68 338.53 168.47 340.00 168.31 341.48 L 167.67 341.54 C 167.25 351.00 168.70 361.05 173.80 369.18 C 175.07 371.79 176.91 374.03 178.78 376.24 C 180.33 378.04 182.12 379.61 183.93 381.15 C 184.82 381.89 185.64 382.69 186.34 383.62 C 186.05 425.08 186.36 466.55 186.19 508.01 C 186.01 510.30 185.65 512.58 185.18 514.83 C 183.17 518.17 180.86 521.73 176.96 523.04 C 171.76 524.53 165.88 523.92 161.61 520.41 C 161.38 520.12 160.93 519.54 160.70 519.25 C 158.12 516.09 157.10 512.05 157.26 508.01 C 157.26 445.43 157.24 382.86 157.27 320.28 Z" />
</g>
</svg>
