<?xml version="1.0" encoding="UTF-8" ?>
<!DOCTYPE svg PUBLIC "-//W3C//DTD SVG 1.1//EN" "http://www.w3.org/Graphics/SVG/1.1/DTD/svg11.dtd">
<svg width="981pt" height="934pt" viewBox="0 0 981 934" version="1.1" xmlns="http://www.w3.org/2000/svg">
<g id="#020202ff">
<path fill="#020202" opacity="1.00" d=" M 199.39 0.00 L 207.62 0.00 C 232.56 4.02 254.38 18.64 272.95 35.05 C 298.84 57.33 317.85 86.06 337.00 114.00 C 355.59 142.00 371.32 171.79 385.93 202.03 C 391.52 214.92 397.71 228.73 394.29 243.15 C 390.72 258.23 377.70 268.34 365.31 276.32 C 352.08 284.63 338.37 292.15 324.68 299.65 C 305.41 308.13 285.33 314.82 266.70 324.70 C 243.17 337.51 234.61 368.90 242.57 393.37 C 264.94 444.68 301.00 488.50 339.00 529.00 C 387.44 580.44 441.39 626.99 501.30 664.69 C 522.77 678.16 544.41 691.47 566.99 703.02 C 591.20 713.11 619.49 703.18 636.78 684.78 C 649.80 673.04 655.93 656.09 664.05 641.02 C 669.01 632.74 672.90 623.88 677.32 615.30 C 687.34 598.67 696.54 581.23 710.18 567.18 C 722.99 554.55 742.93 551.08 759.87 556.21 C 782.50 564.57 802.01 579.01 822.33 591.65 C 865.70 619.68 907.05 650.99 945.27 685.74 C 959.13 699.80 975.40 713.74 981.00 733.45 L 981.00 756.61 C 978.72 763.62 977.64 771.01 974.81 777.85 C 960.60 810.48 936.51 837.72 910.72 861.71 C 886.50 883.16 860.60 903.24 831.29 917.29 C 814.97 924.41 797.93 930.42 780.11 932.20 C 775.93 933.01 771.50 932.52 767.50 934.00 L 752.41 934.00 C 722.74 931.45 694.06 922.71 666.11 912.83 C 619.44 895.66 574.52 873.97 531.04 849.93 C 427.75 792.51 331.06 722.25 248.31 637.70 C 173.45 559.42 108.77 471.27 56.75 376.24 C 45.63 354.15 33.90 332.30 24.72 309.30 C 15.61 286.87 6.92 264.07 2.75 240.12 C 0.67 233.43 2.41 226.03 0.00 219.52 L 0.00 215.48 C 1.98 211.44 0.67 206.68 1.55 202.39 C 5.20 173.64 17.83 146.78 34.12 123.09 C 49.56 100.05 68.95 79.94 90.02 62.03 C 108.86 47.06 126.80 30.65 147.99 18.98 C 164.31 10.81 181.16 2.72 199.39 0.00 Z" />
</g>
</svg>
