<?xml version="1.0"?>
<svg xmlns="http://www.w3.org/2000/svg" viewBox="0 0 64 64">
    <path d="M 32 2 C 19.869 2 10 11.869 10 24 C 10 38.224 30.393719 60.723828 31.261719 61.673828 C 31.450719 61.881828 31.719 62 32 62 C 32.281 62 32.549281 61.881828 32.738281 61.673828 C 33.606281 60.723828 54 38.224 54 24 C 54 11.869 44.131 2 32 2 z M 32 4 C 43.028 4 52 12.972 52 24 C 52 35.985 35.699 55.273141 32 59.494141 C 28.301 55.273141 12 35.985 12 24 C 12 12.972 20.972 4 32 4 z M 18.585938 14.017578 C 18.334563 14.065328 18.100812 14.21 17.945312 14.4375 C 16.018313 17.2645 15 20.571 15 24 C 15 27.429 16.019266 30.7355 17.947266 33.5625 C 18.140266 33.8465 18.453437 34 18.773438 34 C 18.967437 34 19.163938 33.944172 19.335938 33.826172 C 19.791937 33.515172 19.910609 32.892547 19.599609 32.435547 C 17.899609 29.942547 17 27.025 17 24 C 17 20.975 17.899609 18.0565 19.599609 15.5625 C 19.910609 15.1065 19.791937 14.484828 19.335938 14.173828 C 19.106938 14.018328 18.837312 13.969828 18.585938 14.017578 z M 45.029297 14.019531 C 44.901734 14.044953 44.776609 14.096328 44.662109 14.173828 C 44.206109 14.484828 44.089391 15.107453 44.400391 15.564453 C 46.101391 18.057453 47 20.975 47 24 C 47 27.025 46.100391 29.9435 44.400391 32.4375 C 44.089391 32.8945 44.208062 33.515172 44.664062 33.826172 C 44.836063 33.943172 45.032563 34 45.226562 34 C 45.546563 34 45.859734 33.8465 46.052734 33.5625 C 47.980734 30.7355 49 27.429 49 24 C 49 20.571 47.980734 17.2645 46.052734 14.4375 C 45.820234 14.09625 45.411984 13.943266 45.029297 14.019531 z M 30.974609 15.025391 C 29.949609 15.142391 28.956484 15.435531 28.021484 15.894531 C 23.568484 18.084531 21.727016 23.487406 23.916016 27.941406 C 24.977016 30.098406 26.813844 31.713281 29.089844 32.488281 C 30.042844 32.813281 31.024953 32.974609 32.001953 32.974609 C 33.359953 32.974609 34.709844 32.662875 35.964844 32.046875 C 39.863844 30.129875 41.838203 25.70625 40.658203 21.53125 C 40.508203 21.00025 39.957828 20.693797 39.423828 20.841797 C 38.892828 20.991797 38.582422 21.545172 38.732422 22.076172 C 39.649422 25.322172 38.114031 28.760953 35.082031 30.251953 C 31.618031 31.954953 27.414938 30.522594 25.710938 27.058594 C 24.007938 23.595594 25.440297 19.392453 28.904297 17.689453 C 29.632297 17.331453 30.403219 17.104672 31.199219 17.013672 C 31.748219 16.951672 32.142078 16.45425 32.080078 15.90625 C 32.018078 15.35625 31.511609 14.959391 30.974609 15.025391 z M 34.916016 15.53125 C 34.526766 15.540016 34.160812 15.778562 34.007812 16.164062 C 33.804813 16.678062 34.057312 17.259891 34.570312 17.462891 C 35.424312 17.800891 36.189703 18.291828 36.845703 18.923828 C 37.039703 19.110828 37.290063 19.203125 37.539062 19.203125 C 37.801063 19.203125 38.062766 19.100484 38.259766 18.896484 C 38.642766 18.498484 38.630422 17.865422 38.232422 17.482422 C 37.387422 16.669422 36.403641 16.036563 35.306641 15.601562 C 35.178641 15.550313 35.045766 15.528328 34.916016 15.53125 z M 32 19 C 29.243 19 27 21.243 27 24 C 27 26.757 29.243 29 32 29 C 34.757 29 37 26.757 37 24 C 37 21.243 34.757 19 32 19 z M 32 21 C 33.654 21 35 22.346 35 24 C 35 25.654 33.654 27 32 27 C 30.346 27 29 25.654 29 24 C 29 22.346 30.346 21 32 21 z"/>
</svg>
