<?xml version="1.0" encoding="UTF-8" ?>
<!DOCTYPE svg PUBLIC "-//W3C//DTD SVG 1.1//EN" "http://www.w3.org/Graphics/SVG/1.1/DTD/svg11.dtd">
<svg width="225pt" height="225pt" viewBox="0 0 225 225" version="1.1" xmlns="http://www.w3.org/2000/svg">
<g id="#ffffffff">
</g>
<g id="#000000ff">
<path fill="#000000" opacity="1.00" d=" M 109.27 0.00 L 112.07 0.00 C 117.05 0.70 121.95 2.96 125.09 7.00 C 129.88 12.75 130.64 21.46 126.89 27.94 C 124.32 32.77 119.43 35.84 114.26 37.23 C 114.25 38.60 114.25 39.98 114.24 41.35 C 133.14 41.39 152.03 41.36 170.92 41.36 C 172.25 41.10 173.02 42.27 173.87 43.05 C 180.74 49.99 187.66 56.88 194.58 63.77 C 187.08 71.24 179.65 78.77 172.12 86.21 C 167.84 86.17 163.56 86.20 159.29 86.17 C 159.00 91.08 159.93 96.14 158.61 100.93 C 156.98 105.71 152.00 108.83 147.02 108.70 C 136.10 108.74 125.17 108.68 114.25 108.72 C 114.32 135.03 114.26 161.34 114.28 187.65 C 120.54 187.64 126.80 187.67 133.07 187.63 C 133.08 192.63 133.07 197.63 133.06 202.63 C 136.80 202.66 140.54 202.65 144.28 202.65 C 144.26 210.10 144.28 217.55 144.27 225.00 L 76.91 225.00 C 76.91 217.54 76.91 210.08 76.92 202.63 C 80.63 202.66 84.35 202.65 88.07 202.65 C 88.07 197.65 88.12 192.65 88.01 187.66 C 94.33 187.63 100.64 187.66 106.96 187.64 C 106.98 161.33 106.91 135.02 106.99 108.71 C 89.06 108.67 71.13 108.78 53.20 108.66 C 45.29 101.65 38.08 93.64 30.42 86.27 C 37.87 78.77 45.34 71.29 52.84 63.84 C 57.13 63.86 61.42 63.85 65.71 63.86 C 65.78 59.90 65.63 55.93 65.76 51.97 C 66.00 46.12 71.51 41.26 77.31 41.40 C 87.19 41.30 97.08 41.40 106.97 41.37 C 106.97 40.00 106.97 38.63 106.98 37.26 C 102.46 35.93 98.00 33.62 95.36 29.58 C 90.68 23.16 90.80 13.79 95.71 7.54 C 98.86 3.16 104.00 0.67 109.27 0.00 M 105.47 8.69 C 102.70 10.18 100.50 12.78 99.63 15.82 C 97.67 22.33 103.02 30.06 109.94 29.99 C 116.92 30.84 123.20 23.72 121.78 16.90 C 120.76 9.65 111.94 4.99 105.47 8.69 M 73.14 51.89 C 72.92 55.87 73.10 59.86 73.04 63.84 C 96.03 63.87 119.02 63.85 142.01 63.85 C 145.89 63.93 150.08 63.31 153.54 65.48 C 158.32 68.02 159.86 73.82 159.29 78.87 C 162.54 78.86 165.79 78.83 169.04 78.88 C 174.09 73.89 179.07 68.82 184.15 63.85 C 179.08 58.71 174.07 53.49 168.79 48.57 C 138.53 48.72 108.26 48.59 78.00 48.64 C 75.81 48.44 73.81 49.83 73.14 51.89 M 55.97 71.11 C 50.95 76.21 45.75 81.15 40.86 86.37 C 46.11 91.26 50.91 96.61 56.21 101.44 C 86.47 101.29 116.73 101.43 146.99 101.37 C 149.41 101.61 151.93 99.63 151.93 97.16 C 151.99 90.10 151.94 83.03 151.96 75.96 C 152.22 73.29 149.72 70.80 147.04 71.15 C 116.68 71.12 86.33 71.19 55.97 71.11 M 95.48 195.00 C 95.47 197.55 95.47 200.09 95.47 202.64 C 105.56 202.66 115.64 202.64 125.72 202.65 C 125.72 200.10 125.72 197.56 125.73 195.02 C 115.65 194.98 105.56 195.01 95.48 195.00 M 84.24 210.00 C 84.24 212.53 84.24 215.05 84.23 217.57 C 101.80 217.61 119.38 217.58 136.96 217.59 C 136.93 215.06 136.92 212.53 136.91 210.00 C 119.36 210.02 101.80 210.02 84.24 210.00 Z" />
</g>
</svg>
